<svg xmlns="http://www.w3.org/2000/svg" width="268.04999999999995" height="35" viewBox="0 0 268.04999999999995 35"><rect class="svg__rect" x="0" y="0" width="121.56" height="35" fill="#A7BFC1"/><rect class="svg__rect" x="119.56" y="0" width="148.48999999999998" height="35" fill="#C13B3A"/><path class="svg__text" d="M15.00 22L13.46 22L16.68 13.47L18.01 13.47L21.24 22L19.69 22L18.99 20.01L15.69 20.01L15.00 22ZM17.34 15.28L16.10 18.82L18.58 18.82L17.34 15.28ZM25.06 19.16L25.06 19.16L25.06 13.47L26.53 13.47L26.53 19.18Q26.53 20.03 26.97 20.48Q27.40 20.93 28.24 20.93L28.24 20.93Q29.96 20.93 29.96 19.13L29.96 19.13L29.96 13.47L31.43 13.47L31.43 19.17Q31.43 20.53 30.56 21.32Q29.69 22.12 28.24 22.12L28.24 22.12Q26.78 22.12 25.92 21.33Q25.06 20.55 25.06 19.16ZM37.68 14.66L35.05 14.66L35.05 13.47L41.81 13.47L41.81 14.66L39.15 14.66L39.15 22L37.68 22L37.68 14.66ZM45.30 18.00L45.30 18.00L45.30 17.52Q45.30 16.28 45.74 15.32Q46.19 14.37 46.99 13.86Q47.80 13.35 48.84 13.35Q49.88 13.35 50.69 13.85Q51.49 14.35 51.93 15.29Q52.37 16.23 52.38 17.48L52.38 17.48L52.38 17.96Q52.38 19.21 51.95 20.16Q51.51 21.10 50.71 21.61Q49.90 22.12 48.85 22.12L48.85 22.12Q47.81 22.12 47.00 21.61Q46.19 21.10 45.75 20.17Q45.31 19.23 45.30 18.00ZM46.78 17.46L46.78 17.96Q46.78 19.36 47.33 20.13Q47.88 20.90 48.85 20.90L48.85 20.90Q49.84 20.90 50.37 20.15Q50.90 19.40 50.90 17.96L50.90 17.96L50.90 17.51Q50.90 16.09 50.36 15.34Q49.82 14.58 48.84 14.58L48.84 14.58Q47.88 14.58 47.34 15.33Q46.80 16.09 46.78 17.46L46.78 17.46ZM58.32 22L56.84 22L56.84 13.47L58.77 13.47L61.23 20.01L63.68 13.47L65.60 13.47L65.60 22L64.12 22L64.12 19.19L64.27 15.43L61.75 22L60.69 22L58.17 15.43L58.32 19.19L58.32 22ZM71.12 22L69.58 22L72.80 13.47L74.13 13.47L77.36 22L75.81 22L75.11 20.01L71.81 20.01L71.12 22ZM73.46 15.28L72.22 18.82L74.70 18.82L73.46 15.28ZM82.99 14.66L80.36 14.66L80.36 13.47L87.13 13.47L87.13 14.66L84.47 14.66L84.47 22L82.99 22L82.99 14.66ZM96.46 22L90.88 22L90.88 13.47L96.42 13.47L96.42 14.66L92.36 14.66L92.36 17.02L95.87 17.02L95.87 18.19L92.36 18.19L92.36 20.82L96.46 20.82L96.46 22ZM103.11 22L100.65 22L100.65 13.47L103.17 13.47Q104.31 13.47 105.18 13.97Q106.06 14.48 106.54 15.40Q107.02 16.33 107.02 17.52L107.02 17.52L107.02 17.95Q107.02 19.16 106.53 20.08Q106.05 21.00 105.16 21.50Q104.26 22 103.11 22L103.11 22ZM102.14 14.66L102.14 20.82L103.10 20.82Q104.27 20.82 104.89 20.09Q105.52 19.36 105.53 17.99L105.53 17.99L105.53 17.52Q105.53 16.13 104.93 15.40Q104.32 14.66 103.17 14.66L103.17 14.66L102.14 14.66Z" fill="#FFFFFF"/><path class="svg__text" d="M135.54 15.48L132.96 15.48L132.96 13.60L140.48 13.60L140.48 15.48L137.91 15.48L137.91 22L135.54 22L135.54 15.48ZM147.23 22L144.85 22L144.85 13.60L147.23 13.60L147.23 22ZM154.60 22L152.40 22L152.40 13.60L154.36 13.60L157.31 18.45L160.20 13.60L162.15 13.60L162.17 22L159.99 22L159.97 17.55L157.81 21.17L156.75 21.17L154.60 17.67L154.60 22ZM174.08 22L167.33 22L167.33 13.60L173.93 13.60L173.93 15.44L169.69 15.44L169.69 16.85L173.42 16.85L173.42 18.63L169.69 18.63L169.69 20.17L174.08 20.17L174.08 22ZM181.24 22L178.88 22L178.88 13.60L181.24 13.60L181.24 17.09L184.49 13.60L187.10 13.60L183.68 17.32L187.28 22L184.53 22L182.12 18.95L181.24 19.90L181.24 22ZM198.14 22L191.39 22L191.39 13.60L197.98 13.60L197.98 15.44L193.75 15.44L193.75 16.85L197.48 16.85L197.48 18.63L193.75 18.63L193.75 20.17L198.14 20.17L198.14 22ZM209.69 22L202.94 22L202.94 13.60L209.53 13.60L209.53 15.44L205.30 15.44L205.30 16.85L209.03 16.85L209.03 18.63L205.30 18.63L205.30 20.17L209.69 20.17L209.69 22ZM216.87 22L214.49 22L214.49 13.60L218.33 13.60Q219.47 13.60 220.31 13.98Q221.15 14.35 221.61 15.06Q222.07 15.76 222.07 16.71L222.07 16.71Q222.07 17.66 221.61 18.35Q221.15 19.05 220.31 19.42Q219.47 19.80 218.33 19.80L218.33 19.80L216.87 19.80L216.87 22ZM216.87 15.47L216.87 17.93L218.19 17.93Q218.92 17.93 219.29 17.61Q219.66 17.29 219.66 16.71L219.66 16.71Q219.66 16.12 219.29 15.80Q218.92 15.47 218.19 15.47L218.19 15.47L216.87 15.47ZM229.20 22L226.82 22L226.82 13.60L229.20 13.60L229.20 22ZM236.70 22L234.37 22L234.37 13.60L236.33 13.60L240.04 18.07L240.04 13.60L242.36 13.60L242.36 22L240.41 22L236.70 17.52L236.70 22ZM247.10 17.80L247.10 17.80Q247.10 16.54 247.70 15.54Q248.29 14.55 249.36 13.99Q250.43 13.43 251.77 13.43L251.77 13.43Q252.95 13.43 253.89 13.83Q254.83 14.22 255.45 14.97L255.45 14.97L253.94 16.33Q253.09 15.40 251.91 15.40L251.91 15.40Q251.90 15.40 251.90 15.40L251.90 15.40Q250.82 15.40 250.16 16.06Q249.49 16.71 249.49 17.80L249.49 17.80Q249.49 18.50 249.80 19.04Q250.10 19.59 250.64 19.89Q251.18 20.20 251.87 20.20L251.87 20.20Q252.56 20.20 253.16 19.93L253.16 19.93L253.16 17.62L255.25 17.62L255.25 21.10Q254.53 21.61 253.60 21.89Q252.66 22.17 251.73 22.17L251.73 22.17Q250.41 22.17 249.35 21.61Q248.29 21.05 247.70 20.05Q247.10 19.06 247.10 17.80Z" fill="#FFFFFF" x="132.56"/></svg>